<svg xmlns="http://www.w3.org/2000/svg" xmlns:xlink="http://www.w3.org/1999/xlink" viewBox="0 0 320 320"><defs><style>.cls-1{fill:url(#linear-gradient);}.cls-2{fill:#fff;}.cls-3{fill:url(#linear-gradient-2);}.cls-4{fill:url(#linear-gradient-3);}.cls-5{fill:url(#linear-gradient-4);}</style><linearGradient id="linear-gradient" x1="604" y1="635" x2="604" y2="315" gradientUnits="userSpaceOnUse"><stop offset="0" stop-color="#441467"/><stop offset="0.62" stop-color="#4918b9"/><stop offset="1" stop-color="#4c1bec"/></linearGradient><linearGradient id="linear-gradient-2" x1="764" y1="635" x2="764" y2="315" gradientUnits="userSpaceOnUse"><stop offset="0" stop-color="#e22434"/><stop offset="0.31" stop-color="#e32732"/><stop offset="0.55" stop-color="#e8312e"/><stop offset="0.77" stop-color="#ef4226"/><stop offset="0.97" stop-color="#fa591a"/><stop offset="1" stop-color="#fc5d18"/></linearGradient><linearGradient id="linear-gradient-3" x1="738.61" y1="629.67" x2="733.28" y2="317.09" xlink:href="#linear-gradient"/><linearGradient id="linear-gradient-4" x1="631.43" y1="627.02" x2="632.76" y2="306.81" gradientUnits="userSpaceOnUse"><stop offset="0" stop-color="#e22434"/><stop offset="0.3" stop-color="#e32732"/><stop offset="0.54" stop-color="#e8312e"/><stop offset="0.76" stop-color="#f04225"/><stop offset="0.97" stop-color="#fb5a1a"/><stop offset="0.99" stop-color="#fc5d18"/></linearGradient></defs><title>photoify_logo</title><g id="purple"><path class="cls-1" d="M684,315V635H594a70.21,70.21,0,0,1-70-70V385a70.21,70.21,0,0,1,70-70Z" transform="translate(-524 -315)"/><circle class="cls-2" cx="231.5" cy="131.5" r="4.5"/></g><g id="orange"><path class="cls-3" d="M844,385V565a70.21,70.21,0,0,1-70,70H684V315h90A70.21,70.21,0,0,1,844,385Z" transform="translate(-524 -315)"/><circle class="cls-2" cx="159.87" cy="176.25" r="43.29"/></g><g id="camera"><path class="cls-4" d="M788.89,448.82v85.75a22.36,22.36,0,0,1-22.3,22.29H684V534.5a43.19,43.19,0,0,0,0-86.38v-54h38.46a13.2,13.2,0,0,1,13.21,13.21l5.65,19.18h25.27A22.36,22.36,0,0,1,788.89,448.82Z" transform="translate(-524 -315)"/><path class="cls-5" d="M640.81,491.31A43.19,43.19,0,0,0,684,534.5v22.36H602.18a22.35,22.35,0,0,1-22.29-22.29V448.82a22.35,22.35,0,0,1,22.29-22.29h24.5l5.65-19.18a13.2,13.2,0,0,1,13.21-13.21H684v54a43.21,43.21,0,0,0-43.19,43.19Z" transform="translate(-524 -315)"/><g id="flash"><circle class="cls-2" cx="238" cy="131" r="7"/></g></g></svg>